<?xml version="1.0" encoding="UTF-8"?>
<!DOCTYPE svg PUBLIC "-//W3C//DTD SVG 1.1//EN" "http://www.w3.org/Graphics/SVG/1.1/DTD/svg11.dtd">
<!-- Creator: CorelDRAW 2021 (64-Bit) -->
<svg xmlns="http://www.w3.org/2000/svg" xml:space="preserve" width="3.42045in" height="1.5in" version="1.1" style="shape-rendering:geometricPrecision; text-rendering:geometricPrecision; image-rendering:optimizeQuality; fill-rule:evenodd; clip-rule:evenodd"
viewBox="0 0 3420.45 1500"
 xmlns:xlink="http://www.w3.org/1999/xlink"
 xmlns:xodm="http://www.corel.com/coreldraw/odm/2003">
 <defs>
  <style type="text/css">
   <![CDATA[
    .fil1 {fill:#E6A817}
    .fil0 {fill:black;fill-rule:nonzero}
   ]]>
  </style>
 </defs>
 <g id="Layer_x0020_1">
  <metadata id="CorelCorpID_0Corel-Layer"/>
  <g id="_2766076522416">
   <path class="fil0" d="M1927.12 731.55c4.09,-63.22 27.52,-117.79 70.26,-163.72 42.3,-45.48 97.32,-68.22 165.09,-68.22 80.09,0 150.22,33.84 186.14,104.76 29.08,57.42 13.26,44.19 -44.25,80.79 -31.38,19.1 -52.84,31.45 -64.13,37.52 -3.17,1.7 -14.23,4.6 -13.64,-9.55 3.64,-43.66 0.68,-86.64 -8.87,-128.93 -9.55,-38.66 -25.7,-58.67 -48.43,-60.03 -23.2,0 -41.84,12.28 -55.94,36.84 -13.64,25.01 -22.06,51.62 -25.24,79.81 -10,75.04 -3.41,140.98 19.78,197.83 23.19,56.85 62.08,86.41 116.65,88.68 25.01,0 49.8,-8.64 74.35,-25.92 23.65,-15.92 41.84,-36.38 54.57,-61.4 4.09,-6.82 8.41,-10.23 12.96,-10.23 8.19,0 10.69,7.05 7.5,21.15 -8.64,42.75 -32.29,77.77 -70.94,105.05 -97.76,69.34 -242.78,48.54 -319.26,-43.32 -41.84,-50.25 -60.71,-110.63 -56.62,-181.12zm1030.15 -209.3c-1.85,-5.11 2.54,-10.23 6.82,-10.23l161.54 0c97.23,0 258,3.76 258,135.75 0,55.94 -34.34,86.53 -103.01,111.09 -4.6,1.74 -6.13,7.14 -3.41,11.6 25.93,41.84 57.76,99.02 95.5,152.23 13.19,18.65 28.2,35.24 45.02,49.8 5.11,4.33 2.71,13.64 -4.78,13.64l-188.28 0c-5.75,0 -7.76,-5.2 -7.5,-9.55 2.94,-50.26 -38.11,-193.55 -91.19,-193.55 0.65,33.39 6.83,158.79 17.52,192.87 1.86,5.94 -2.56,10.23 -6.82,10.23l-172.59 0c-5.58,0 -8.61,-4.79 -6.82,-10.23 26.03,-79.27 25.27,-383.68 0,-453.65zm168.41 227.1c150.28,-0.82 131.94,-203.08 46.13,-203.08l-46.05 -0.14 -0.08 203.22zm-648.39 -227.78c-0.93,-4.5 2.84,-9.55 7.5,-9.55l342.28 0c22.61,0 18.17,-0.64 19.55,21.49 4.57,73.24 8.35,117.25 11.33,147.47 1.1,5.16 -6.03,7.31 -8.87,1.36 -31.7,-105.02 -97.5,-136.21 -195.78,-136.21 -5.41,24.74 -6.41,187.4 -5.91,202.05 64.7,0 87.55,-9.03 118.46,-52.94 1.87,-2.66 5.46,-4.47 5.46,2.04l0 136.64c0.74,3.16 -3.55,6.52 -6.14,0 -16.18,-40.65 -78.04,-52.31 -118.02,-52.31 0,37.7 5.46,154.54 19.1,194.3 1.63,4.91 -2.37,10.23 -7.5,10.23l-171.23 0c-5.38,0 -9.37,-4.62 -7.5,-10.23 35.83,-107.49 22.1,-337.29 -2.73,-454.33zm-1046.25 60.6c48.21,-55.03 110.29,-82.54 186.23,-82.54 43.66,-0.46 84.14,11.14 121.43,34.79 26.34,15.2 46.04,35.67 59.09,61.39 24.67,48.65 -10.4,53.26 -55.68,79.14 -25.01,14.55 -43.66,25.01 -55.94,31.38 -4.17,1.91 -13.26,-2.24 -10.91,-8.19 17.89,-45.52 -2.21,-178.05 -63.44,-178.05 -8,0 -7.69,1.25 -8.87,1.36 -23.2,4.55 -40.7,27.29 -52.53,68.22 -11.83,41.39 -13.65,91.18 -5.46,149.39 9.64,64.59 31.4,130.09 72.16,181.96 35.27,44.87 78.98,70.02 78.4,-22.53 -0.33,-52.13 -19.32,-119.48 -72.79,-128.73 -6.69,-1.15 -6.14,-14.32 3.41,-14.32l194.88 0c4.94,0 9.3,5.15 6.82,10.23 -4.55,11.82 -7.73,23.87 -9.55,36.15 -4.55,23.2 -6.37,46.62 -5.46,70.26 0,51.39 3.21,90.04 9.55,115.97 1.09,4.46 -5.03,8.15 -9.72,3.29 -3.46,-3.58 -6.7,-9.57 -8.69,-12.16 -11.89,-15.66 -15.66,-22.55 -25.24,-28.65 -17.21,-10.95 -26.35,-3.75 -40.93,5.46 -22.29,13.94 -39.04,25.92 -64.58,32.74 -19.1,5 -38.66,7.96 -58.67,8.87 -65.03,0 -119.15,-18.19 -162.36,-54.57 -42.75,-36.84 -68.67,-87.32 -77.76,-151.44 -10.46,-84.59 8.41,-154.4 56.62,-209.42z"/>
   <path class="fil1" d="M366.15 242.72c-49.98,-102.49 -152.76,-129.92 -262.1,-119.18 -34.34,3.37 -70.04,9.56 -103.24,18.52l142.05 -142.05 835.9 0 142.86 142.86 0 1214.28 -142.86 142.86 -835.9 0 -142.86 -142.86 0 -247.85c23,9.85 48.06,19.09 78.84,35.72 248.59,134.36 347.57,-162.05 366.75,-346.02 12.59,104.8 85.55,137.62 182.41,160.61 -57.51,-36.61 -106.35,-88.4 -88.19,-154.09 107.15,43.91 331.94,216.97 321.28,362.81 -12.43,170.03 -219.25,123.37 -180.11,38.26 10.35,-22.52 33.28,-44.33 61.85,-51.04 10.81,-6.43 28.31,-0.7 19.33,-19.91 -10.46,-22.36 -27.37,-40.8 -48.12,-56.64 -17.21,-13.13 -12.14,7.26 -24.58,15.7 -42.44,28.83 -116.6,97.04 -72.02,188.45 11.8,24.2 42.15,46.01 76.06,55.59 81.83,23.13 158.24,10.95 213.69,-37.66 195.42,-171.37 -27.48,-564.11 -198.93,-673.74 -6.21,-234.91 -137.88,-394.04 -342.09,-384.63z"/>
  </g>
 </g>
</svg>
