<?xml version="1.0" encoding="UTF-8"?>
<!DOCTYPE svg PUBLIC "-//W3C//DTD SVG 1.1//EN" "http://www.w3.org/Graphics/SVG/1.1/DTD/svg11.dtd">
<!-- Creator: CorelDRAW 2021 (64-Bit) -->
<svg xmlns="http://www.w3.org/2000/svg" xml:space="preserve" width="2.52345in" height="2.50977in" version="1.1" style="shape-rendering:geometricPrecision; text-rendering:geometricPrecision; image-rendering:optimizeQuality; fill-rule:evenodd; clip-rule:evenodd"
viewBox="0 0 2523.01 2509.33"
 xmlns:xlink="http://www.w3.org/1999/xlink"
 xmlns:xodm="http://www.corel.com/coreldraw/odm/2003">
 <defs>
  <style type="text/css">
   <![CDATA[
    .fil2 {fill:black}
    .fil0 {fill:#E6A817}
    .fil1 {fill:black;fill-rule:nonzero}
   ]]>
  </style>
 </defs>
 <g id="Layer_x0020_1">
  <metadata id="CorelCorpID_0Corel-Layer"/>
  <path class="fil0" d="M1066.91 754.24c-49.97,-102.47 -152.73,-129.9 -262.06,-119.16 -34.34,3.37 -70.02,9.56 -103.23,18.52l142.03 -142.03 835.76 0 142.83 142.83 0 1214.07 -142.83 142.83 -835.76 0 -142.84 -142.83 0 -247.81c23,9.85 48.05,19.09 78.82,35.72 248.54,134.33 347.51,-162.03 366.68,-345.96 12.59,104.78 85.54,137.59 182.37,160.59 -57.5,-36.61 -106.33,-88.39 -88.17,-154.07 107.13,43.91 331.89,216.93 321.22,362.74 -12.43,170 -219.21,123.35 -180.08,38.25 10.35,-22.52 33.28,-44.32 61.84,-51.03 10.81,-6.43 28.31,-0.7 19.32,-19.91 -10.46,-22.36 -27.37,-40.8 -48.11,-56.63 -17.21,-13.12 -12.14,7.25 -24.57,15.7 -42.43,28.83 -116.58,97.02 -72.01,188.42 11.79,24.19 42.15,46 76.05,55.58 81.81,23.13 158.22,10.95 213.65,-37.65 195.38,-171.34 -27.47,-564.01 -198.9,-673.62 -6.21,-234.87 -137.85,-393.97 -342.03,-384.56z"/>
  <path class="fil1" d="M390.6 1968.8c6.33,8.05 10.79,16.58 13.36,25.61 2.55,9 3.33,18 2.3,26.97 -1.02,8.97 -3.78,17.46 -8.29,25.46 -4.48,7.98 -10.65,15.06 -18.49,21.24 -7.74,6.09 -16.04,10.36 -24.92,12.82 -8.88,2.45 -17.78,3.08 -26.73,1.87 -8.95,-1.2 -17.5,-4.16 -25.65,-8.84 -8.16,-4.71 -15.37,-11.03 -21.63,-18.97 -4.41,-5.6 -7.9,-11.6 -10.45,-18 -2.56,-6.39 -4.11,-12.77 -4.65,-19.1 -0.54,-6.34 -0.16,-12.25 1.14,-17.72l23 2.18c-0.5,5.01 -0.49,9.75 0.04,14.19 0.54,4.45 1.58,8.7 3.12,12.76 1.55,4.06 3.68,7.82 6.41,11.29 4.01,5.09 8.64,9.08 13.88,11.96 5.24,2.89 10.75,4.65 16.52,5.27 5.79,0.64 11.59,0.16 17.41,-1.46 5.82,-1.62 11.32,-4.47 16.52,-8.56 4.99,-3.93 8.98,-8.6 11.98,-14.01 2.97,-5.39 4.83,-11.1 5.54,-17.11 0.73,-5.98 0.29,-11.94 -1.32,-17.85 -1.6,-5.91 -4.37,-11.36 -8.3,-16.35 -2.97,-3.77 -6.29,-6.85 -9.98,-9.22 -3.69,-2.37 -7.53,-4.05 -11.51,-5.03 -3.99,-0.98 -7.85,-1.12 -11.58,-0.41 -3.73,0.71 -7.12,2.27 -10.16,4.65l-3.36 2.65 1.04 -5.27 24.9 31.62 -17.72 13.95 -38.13 -48.42c0.96,-1.08 2.08,-2.22 3.38,-3.4 1.3,-1.18 2.55,-2.3 3.79,-3.36 1.23,-1.05 2.31,-1.94 3.22,-2.66 7.03,-5.53 14.35,-9.32 22.03,-11.41 7.68,-2.09 15.35,-2.56 23.01,-1.42 7.66,1.14 14.95,3.74 21.85,7.79 6.9,4.05 13.04,9.49 18.41,16.31z"/>
  <path id="_1" class="fil1" d="M268.13 1788.26c4.35,8.7 6.82,17.53 7.41,26.52 0.57,8.96 -0.57,17.61 -3.43,25.92 -2.87,8.32 -7.36,15.9 -13.51,22.75 -6.11,6.83 -13.7,12.51 -22.74,17.04 -9.04,4.53 -18.14,7.2 -27.29,8.02 -9.16,0.82 -17.93,-0.12 -26.3,-2.81 -8.38,-2.69 -15.99,-6.96 -22.82,-12.78 -6.84,-5.85 -12.44,-13.12 -16.8,-21.81 -4.41,-8.81 -6.9,-17.7 -7.49,-26.68 -0.59,-8.99 0.6,-17.62 3.55,-25.91 2.95,-8.29 7.47,-15.85 13.55,-22.66 6.08,-6.81 13.64,-12.48 22.68,-17.01 8.92,-4.47 17.96,-7.11 27.09,-7.91 9.16,-0.82 17.94,0.07 26.35,2.68 8.4,2.6 16.03,6.83 22.87,12.68 6.84,5.85 12.47,13.17 16.88,21.98zm-21.55 10.8c-2.79,-5.56 -6.34,-10.13 -10.66,-13.69 -4.32,-3.56 -9.2,-6.08 -14.65,-7.55 -5.45,-1.48 -11.14,-1.92 -17.06,-1.35 -5.94,0.59 -11.86,2.35 -17.77,5.31 -5.92,2.96 -10.88,6.64 -14.91,11.05 -4.02,4.41 -7.08,9.24 -9.16,14.49 -2.08,5.24 -2.99,10.66 -2.72,16.26 0.26,5.59 1.79,11.17 4.57,16.73 2.73,5.45 6.27,9.98 10.62,13.6 4.35,3.62 9.22,6.18 14.6,7.66 5.39,1.5 11.04,1.93 16.95,1.29 5.91,-0.64 11.88,-2.47 17.91,-5.49 5.91,-2.96 10.92,-6.63 15.04,-11.01 4.08,-4.37 7.15,-9.16 9.18,-14.38 2.04,-5.19 2.9,-10.62 2.61,-16.28 -0.29,-5.65 -1.8,-11.2 -4.53,-16.65z"/>
  <polygon id="_2" class="fil1" points="200.15,1634.43 71.82,1679.61 63.46,1655.76 169.84,1618.48 149.15,1559.43 171.1,1551.53 "/>
  <path id="_3" class="fil1" d="M152.04 1452.92l-135.06 16.41 -6.58 -54.2c-1.19,-9.78 -0.65,-18.82 1.6,-27.12 2.26,-8.31 6.06,-15.69 11.41,-22.15 5.35,-6.46 11.96,-11.7 19.83,-15.72 7.86,-4.03 16.82,-6.65 26.85,-7.87 10.03,-1.22 19.38,-0.82 28.02,1.2 8.67,2.01 16.34,5.49 23,10.42 6.67,4.94 12.1,11.19 16.28,18.78 4.18,7.59 6.87,16.26 8.06,26.04l6.58 54.2zm-22.54 -22.72l-3.43 2.38 -3.65 -30.08c-0.77,-6.3 -2.48,-11.81 -5.14,-16.51 -2.66,-4.7 -6.13,-8.56 -10.41,-11.56 -4.28,-3 -9.27,-5.07 -14.92,-6.22 -5.69,-1.14 -11.94,-1.3 -18.76,-0.46 -6.82,0.83 -12.85,2.48 -18.11,4.94 -5.25,2.46 -9.58,5.7 -13.01,9.7 -3.43,4.01 -5.88,8.58 -7.35,13.72 -1.46,5.14 -1.81,10.86 -1.05,17.17l3.72 30.65 -3.59 -2.11 95.69 -11.62z"/>
  <path id="_4" class="fil1" d="M135.71 1232.96l-135.68 -10.14 6.76 -88.75 22.87 1.74 -4.87 63.94 89.91 6.85 4.92 -64.52 22.89 1.55 -6.8 89.33zm-57.25 -15.86l-22.49 -1.71 5.11 -67.04 22.5 1.52 -5.12 67.24z"/>
  <path id="_5" class="fil1" d="M157.01 1041.11l-132.51 -30.86 5.16 -22.15 121.44 -52.73 -0.21 4.35c-3.65,-0.32 -7.38,-0.72 -11.19,-1.22 -3.81,-0.49 -7.77,-1.04 -11.86,-1.66 -4.11,-0.63 -8.4,-1.36 -12.86,-2.2 -4.46,-0.84 -9.14,-1.76 -14.03,-2.77 -4.89,-1.01 -10.05,-2.14 -15.47,-3.4l-39.76 -9.26 5.69 -24.43 132.51 30.86 -5.25 22.54 -120.01 53.46 -0.18 -5.23c7.22,1.02 13.37,1.88 18.46,2.6 5.09,0.72 9.46,1.37 13.12,1.96 3.66,0.58 6.71,1.06 9.15,1.43 2.44,0.37 4.64,0.75 6.62,1.15 1.97,0.39 3.84,0.79 5.61,1.2l51.28 11.94 -5.69 24.42z"/>
  <path id="_6" class="fil1" d="M274.91 721.75c-4.45,8.79 -10.02,16.07 -16.71,21.83 -6.68,5.74 -14.17,9.86 -22.48,12.34 -8.3,2.48 -17.04,3.26 -26.22,2.31 -9.18,-0.94 -18.32,-3.71 -27.45,-8.33 -8.79,-4.45 -16.15,-10.13 -22.09,-17.06 -5.94,-6.93 -10.34,-14.6 -13.2,-23.02 -2.86,-8.42 -3.98,-17.12 -3.37,-26.07 0.62,-8.98 3.13,-17.81 7.51,-26.48 2.98,-5.9 6.75,-11.18 11.29,-15.86 4.54,-4.67 9.52,-8.55 14.92,-11.62 5.4,-3.08 10.92,-5.15 16.55,-6.23l8.5 22.39c-4.64,1.43 -8.84,3.19 -12.58,5.29 -3.75,2.09 -7.04,4.57 -9.86,7.43 -2.83,2.85 -5.14,6.07 -6.96,9.66 -2.69,5.32 -4.24,10.82 -4.64,16.5 -0.4,5.68 0.32,11.13 2.2,16.32 1.86,5.22 4.75,10.07 8.67,14.52 3.92,4.45 8.89,8.2 14.9,11.24 6.13,3.1 12.16,4.96 18.1,5.56 5.91,0.59 11.56,0.04 16.93,-1.67 5.36,-1.68 10.24,-4.52 14.63,-8.47 4.39,-3.95 8.09,-8.88 11.07,-14.77 1.93,-3.81 3.28,-7.78 4.05,-11.89 0.77,-4.11 0.98,-8.18 0.62,-12.21 -0.36,-4.03 -1.17,-7.96 -2.42,-11.79l23.49 -2.06c1.72,4.36 2.68,9.49 2.89,15.4 0.2,5.91 -0.42,12.1 -1.87,18.56 -1.45,6.46 -3.61,12.52 -6.48,18.18z"/>
  <path id="_7" class="fil1" d="M407.48 528.39l-107.48 -83.41 15.49 -19.97 107.49 83.41 -15.5 19.97zm-53.49 68.94l-107.48 -83.41 15.49 -19.96 107.48 83.41 -15.49 19.96zm-37.77 -42.6l-18.73 -14.54 54.57 -70.32 18.74 14.54 -54.57 70.32z"/>
  <path id="_8" class="fil1" d="M546 395.93c-7.38,6.33 -15.36,10.87 -23.92,13.62 -8.55,2.72 -17.22,3.72 -25.98,2.96 -8.77,-0.76 -17.21,-3.29 -25.34,-7.59 -8.1,-4.27 -15.46,-10.25 -22.05,-17.93 -6.59,-7.67 -11.38,-15.85 -14.4,-24.54 -3.01,-8.68 -4.23,-17.42 -3.65,-26.2 0.58,-8.78 2.87,-17.2 6.86,-25.24 4.02,-8.06 9.71,-15.25 17.09,-21.59 7.47,-6.41 15.5,-10.99 24.07,-13.74 8.57,-2.75 17.24,-3.7 26,-2.84 8.76,0.85 17.19,3.4 25.27,7.64 8.09,4.25 15.42,10.21 22.01,17.88 6.5,7.57 11.26,15.7 14.25,24.36 3.02,8.68 4.28,17.42 3.79,26.21 -0.48,8.79 -2.74,17.21 -6.75,25.27 -4.01,8.06 -9.76,15.3 -17.23,21.71zm-15.7 -18.29c4.72,-4.05 8.29,-8.6 10.69,-13.66 2.41,-5.05 3.67,-10.4 3.77,-16.04 0.11,-5.64 -0.84,-11.28 -2.83,-16.88 -2.01,-5.62 -5.16,-10.94 -9.47,-15.95 -4.31,-5.02 -9.09,-8.94 -14.34,-11.78 -5.25,-2.83 -10.68,-4.63 -16.28,-5.37 -5.59,-0.75 -11.07,-0.32 -16.43,1.3 -5.36,1.61 -10.4,4.44 -15.12,8.49 -4.63,3.97 -8.16,8.5 -10.62,13.6 -2.46,5.1 -3.76,10.44 -3.89,16.02 -0.15,5.59 0.8,11.18 2.86,16.76 2.06,5.58 5.28,10.93 9.67,16.04 4.3,5.01 9.08,8.99 14.32,11.92 5.22,2.9 10.62,4.72 16.17,5.42 5.53,0.72 11.01,0.24 16.42,-1.42 5.41,-1.65 10.43,-4.46 15.05,-8.43z"/>
  <polygon id="_9" class="fil1" points="675.05,301.45 663.97,282.03 683.13,270.87 637.36,191.83 617.87,203.18 606.79,183.76 667.09,148.67 678.5,167.9 659.01,179.24 705.11,258.08 724.27,246.94 735.68,266.16 "/>
  <path id="_10" class="fil1" d="M882.35 205.09c-9.19,3.56 -18.19,5.24 -27.02,5.05 -8.8,-0.2 -17.13,-2.16 -24.96,-5.87 -7.83,-3.71 -14.84,-8.98 -21.04,-15.82 -6.19,-6.85 -11.13,-15.01 -14.82,-24.56 -3.56,-9.19 -5.23,-18.34 -5.01,-27.46 0.22,-9.12 2.09,-17.76 5.6,-25.94 3.5,-8.17 8.49,-15.38 14.93,-21.63 6.47,-6.26 14.24,-11.14 23.3,-14.65 6.16,-2.39 12.5,-3.8 19,-4.23 6.5,-0.43 12.79,0.01 18.87,1.35 6.07,1.33 11.56,3.48 16.46,6.44l-8.66 22.33c-4.4,-2.05 -8.7,-3.55 -12.89,-4.49 -4.19,-0.95 -8.29,-1.31 -12.3,-1.07 -4.01,0.23 -7.89,1.07 -11.64,2.52 -5.56,2.15 -10.39,5.2 -14.49,9.16 -4.1,3.95 -7.2,8.49 -9.29,13.61 -2.11,5.12 -3.21,10.65 -3.27,16.59 -0.06,5.93 1.12,12.04 3.55,18.32 2.48,6.4 5.72,11.82 9.73,16.25 4,4.4 8.57,7.77 13.71,10.08 5.11,2.33 10.63,3.5 16.54,3.5 5.91,0 11.95,-1.19 18.11,-3.57 3.99,-1.54 7.64,-3.59 10.97,-6.13 3.32,-2.53 6.2,-5.42 8.63,-8.66 2.43,-3.24 4.46,-6.7 6.09,-10.39l18.84 14.18c-1.64,4.39 -4.36,8.84 -8.16,13.38 -3.8,4.53 -8.4,8.71 -13.8,12.54 -5.4,3.82 -11.06,6.88 -16.98,9.18z"/>
  <path id="_11" class="fil1" d="M1022.29 161.27l-24.87 -133.76 87.53 -16.15 4.16 22.56 -63.06 11.63 16.36 88.68 63.63 -11.74 4.35 22.53 -88.1 16.25zm0.7 -59.4l-4.09 -22.18 66.11 -12.2 4.29 22.15 -66.31 12.23z"/>
  <path id="_12" class="fil1" d="M1271.32 136.03l4.02 -136 25.26 0.78 -4.21 135.99 -25.07 -0.78zm13.01 -55.58l0.9 -22.73 69.92 2.36 -0.51 22.74 -70.3 -2.37zm1.76 -56.74l0.92 -23.31 78.47 2.43 -0.72 23.32 -78.67 -2.44z"/>
  <path id="_13" class="fil1" d="M1434.44 147.83l82.52 -120.47 23.1 5.38 20.45 144.46 -25.56 -5.95 -10.86 -81.95c-0.28,-1.66 -0.57,-4.26 -0.88,-7.79 -0.3,-3.53 -0.64,-7.37 -1.01,-11.51 -0.37,-4.14 -0.67,-8.01 -0.89,-11.59 -0.23,-3.58 -0.42,-6.18 -0.57,-7.82l4.78 0.92c-1.35,2.35 -2.89,4.98 -4.64,7.9 -1.74,2.92 -3.58,5.95 -5.51,9.1 -1.93,3.14 -3.8,6.16 -5.61,9.07 -1.8,2.91 -3.45,5.52 -4.92,7.84l-45.78 68.15 -24.62 -5.74zm30.53 -24.83l13.5 -19.38 60.37 14.06 4.11 23.48 -77.98 -18.17z"/>
  <path id="_14" class="fil1" d="M1689.61 222.32c-7.34,-2.94 -13.7,-6.57 -19.1,-10.9 -5.38,-4.32 -9.8,-9.34 -13.24,-15.04 -3.44,-5.71 -6.02,-11.98 -7.75,-18.82l22.28 -11.18c2.62,10.54 6.12,18.51 10.53,23.91 4.4,5.39 10.15,9.51 17.25,12.36 4.09,1.64 8.07,2.5 11.95,2.59 3.88,0.09 7.22,-0.6 10.04,-2.05 2.82,-1.45 4.8,-3.63 5.96,-6.51 0.82,-2.04 1.19,-4.09 1.11,-6.15 -0.09,-2.06 -0.63,-4.09 -1.64,-6.1 -1.01,-2.01 -2.42,-4.07 -4.22,-6.2 -1.81,-2.12 -3.98,-4.18 -6.53,-6.18 -2.55,-2 -5.42,-4.06 -8.62,-6.18 -6.09,-3.98 -11.15,-8.07 -15.19,-12.27 -4.04,-4.2 -7.09,-8.64 -9.13,-13.29 -2.04,-4.66 -3.02,-9.37 -2.92,-14.15 0.1,-4.78 1.21,-9.82 3.32,-15.08 2.12,-5.29 5.25,-9.7 9.38,-13.21 4.13,-3.51 8.89,-6.07 14.28,-7.68 5.39,-1.61 11.16,-2.23 17.29,-1.87 6.14,0.37 12.33,1.8 18.59,4.31 7.1,2.85 13.11,6.23 18.03,10.16 4.92,3.92 8.85,8.4 11.77,13.4 2.95,5.02 4.86,10.43 5.75,16.23l-21.63 9.14c-0.91,-4.7 -2.37,-8.88 -4.39,-12.55 -2.02,-3.67 -4.52,-6.84 -7.51,-9.5 -2.98,-2.66 -6.4,-4.76 -10.25,-6.31 -4.33,-1.73 -8.33,-2.64 -12,-2.72 -3.67,-0.07 -6.85,0.64 -9.55,2.15 -2.7,1.5 -4.67,3.82 -5.93,6.95 -0.96,2.4 -1.27,4.73 -0.93,7.02 0.34,2.3 1.21,4.57 2.62,6.81 1.41,2.24 3.46,4.53 6.15,6.86 2.69,2.34 5.85,4.72 9.49,7.16 6.09,3.98 11.33,8.13 15.73,12.48 4.4,4.35 7.86,8.8 10.32,13.35 2.5,4.56 3.93,9.18 4.29,13.86 0.36,4.68 -0.43,9.43 -2.35,14.25 -3.33,8.3 -8.14,14.65 -14.44,19.03 -6.29,4.39 -13.6,6.77 -21.97,7.11 -8.38,0.35 -17.32,-1.39 -26.82,-5.2z"/>
  <path id="_15" class="fil1" d="M1898.31 334.73l73.94 -114.2 21.22 13.73 -73.94 114.21 -21.22 -13.74zm-73.25 -47.42l73.95 -114.2 21.21 13.73 -73.95 114.21 -21.21 -13.74zm39.25 -41.29l12.89 -19.91 74.72 48.37 -12.89 19.91 -74.72 -48.38z"/>
  <polygon id="_16" class="fil1" points="2002.27,413.43 2017.88,397.42 2033.89,412.75 2097.21,346.93 2080.93,331.33 2096.54,315.32 2146.91,363.59 2131.58,379.86 2115.3,364.26 2052.25,430.35 2068.25,445.68 2052.93,461.96 "/>
  <path id="_17" class="fil1" d="M2156.93 584c-6.01,-7.64 -10.21,-15.8 -12.59,-24.48 -2.36,-8.66 -2.99,-17.36 -1.86,-26.08 1.13,-8.73 4.01,-17.06 8.65,-25 4.61,-7.92 10.9,-15.02 18.84,-21.27 7.94,-6.25 16.32,-10.7 25.12,-13.35 8.8,-2.65 17.58,-3.49 26.33,-2.54 8.75,0.94 17.06,3.6 24.92,7.92 7.88,4.35 14.83,10.34 20.84,17.98 6.09,7.74 10.33,15.95 12.71,24.63 2.38,8.68 2.96,17.38 1.74,26.09 -1.22,8.72 -4.13,17.03 -8.71,24.92 -4.59,7.9 -10.85,14.98 -18.8,21.23 -7.84,6.17 -16.16,10.58 -24.94,13.21 -8.81,2.65 -17.59,3.54 -26.35,2.68 -8.75,-0.85 -17.07,-3.46 -24.96,-7.81 -7.88,-4.35 -14.87,-10.4 -20.96,-18.13zm18.94 -14.91c3.85,4.88 8.25,8.64 13.2,11.25 4.95,2.62 10.24,4.11 15.88,4.45 5.63,0.35 11.3,-0.37 16.98,-2.11 5.7,-1.77 11.15,-4.7 16.34,-8.79 5.2,-4.09 9.32,-8.7 12.38,-13.83 3.05,-5.13 5.07,-10.47 6.06,-16.03 0.98,-5.55 0.78,-11.05 -0.61,-16.47 -1.38,-5.42 -4,-10.58 -7.85,-15.47 -3.77,-4.79 -8.15,-8.51 -13.14,-11.18 -4.99,-2.67 -10.28,-4.2 -15.84,-4.56 -5.58,-0.39 -11.2,0.33 -16.86,2.15 -5.66,1.82 -11.14,4.81 -16.43,8.98 -5.19,4.09 -9.36,8.69 -12.51,13.81 -3.12,5.1 -5.16,10.42 -6.1,15.93 -0.95,5.5 -0.7,10.99 0.72,16.47 1.42,5.48 4.02,10.61 7.79,15.4z"/>
  <path id="_18" class="fil1" d="M2251.24 721.73l123.97 -56.07 9.37 20.72 -64.34 115.7 -2.48 -3.58c3.09,-1.96 6.3,-3.92 9.63,-5.84 3.32,-1.93 6.81,-3.9 10.42,-5.89 3.65,-2 7.5,-4.03 11.55,-6.08 4.05,-2.04 8.33,-4.15 12.82,-6.33 4.5,-2.17 9.28,-4.41 14.36,-6.71l37.2 -16.83 10.34 22.85 -123.96 56.07 -9.53 -21.08 62.77 -115.41 3.32 4.04c-6.35,3.58 -11.76,6.64 -16.23,9.16 -4.48,2.52 -8.35,4.67 -11.6,6.42 -3.26,1.76 -5.97,3.24 -8.14,4.43 -2.16,1.2 -4.14,2.23 -5.95,3.12 -1.8,0.89 -3.53,1.71 -5.19,2.46l-47.97 21.7 -10.34 -22.85z"/>
  <path id="_19" class="fil1" d="M2354.42 985.51l133.8 -24.68 10.71 58.09c1.48,8.03 0.95,15.71 -1.58,23.03 -2.54,7.32 -6.66,13.52 -12.39,18.6 -5.72,5.07 -12.59,8.35 -20.62,9.83 -7.65,1.41 -15.05,0.76 -22.2,-1.93 -7.16,-2.7 -13.22,-6.99 -18.19,-12.86 -4.98,-5.87 -8.21,-12.88 -9.71,-21.04l-6.24 -33.81 -49.11 9.06 -4.48 -24.28zm14.31 77.58l54.11 -45.17 9.5 24.74 -58.37 49.91 -5.24 -29.48zm60.88 -66.35l6.27 34c0.68,3.7 2.14,6.75 4.36,9.18 2.23,2.42 5.01,4.12 8.35,5.09 3.34,0.96 6.86,1.1 10.55,0.42 4.21,-0.78 7.66,-2.4 10.37,-4.88 2.71,-2.48 4.64,-5.6 5.79,-9.37 1.15,-3.77 1.31,-7.88 0.49,-12.34l-5.46 -29.6 -40.72 7.51z"/>
  <path id="_20" class="fil1" d="M2384.23 1192.07l135.98 -4.41 2.76 88.96 -22.93 0.71 -1.98 -64.09 -90.13 2.79 2 64.68 -22.93 0.91 -2.78 -89.55zm58.62 9.66l22.55 -0.7 2.08 67.2 -22.54 0.89 -2.09 -67.39z"/>
  <path id="_21" class="fil1" d="M2373.44 1426.8c0.95,-7.85 2.82,-14.9 5.61,-21.22 2.79,-6.32 6.5,-11.87 11.13,-16.66 4.63,-4.79 10.03,-8.9 16.19,-12.33l16.54 18.65c-9.51,5.25 -16.31,10.68 -20.39,16.33 -4.07,5.61 -6.57,12.22 -7.5,19.82 -0.53,4.37 -0.34,8.44 0.57,12.21 0.91,3.77 2.44,6.82 4.57,9.17 2.13,2.35 4.74,3.71 7.83,4.08 2.19,0.27 4.26,0.09 6.24,-0.52 1.96,-0.61 3.79,-1.66 5.47,-3.15 1.65,-1.5 3.28,-3.39 4.87,-5.68 1.59,-2.29 3.02,-4.92 4.29,-7.9 1.28,-2.98 2.53,-6.29 3.75,-9.93 2.28,-6.9 4.92,-12.82 7.94,-17.8 3.02,-4.98 6.52,-9.07 10.5,-12.24 3.97,-3.17 8.28,-5.33 12.92,-6.46 4.64,-1.13 9.79,-1.35 15.46,-0.67 5.66,0.69 10.72,2.58 15.17,5.66 4.46,3.09 8.16,7.03 11.1,11.83 2.94,4.79 5.03,10.21 6.25,16.23 1.23,6 1.44,12.35 0.63,19.04 -0.92,7.59 -2.65,14.27 -5.18,20.03 -2.53,5.77 -5.84,10.71 -9.93,14.86 -4.09,4.14 -8.83,7.38 -14.21,9.73l-14.39 -18.59c4.3,-2.09 7.97,-4.58 11,-7.48 3.03,-2.9 5.44,-6.13 7.25,-9.7 1.81,-3.57 2.96,-7.41 3.46,-11.53 0.56,-4.64 0.41,-8.73 -0.46,-12.3 -0.88,-3.53 -2.39,-6.43 -4.53,-8.64 -2.15,-2.22 -4.89,-3.53 -8.24,-3.94 -2.57,-0.31 -4.92,-0.01 -7.06,0.91 -2.14,0.92 -4.11,2.34 -5.9,4.28 -1.8,1.9 -3.48,4.47 -5.05,7.67 -1.56,3.21 -3.05,6.88 -4.47,11.01 -2.28,6.9 -4.95,13.04 -8.01,18.41 -3.07,5.37 -6.48,9.85 -10.25,13.44 -3.77,3.59 -7.86,6.16 -12.29,7.71 -4.44,1.55 -9.19,2.02 -14.34,1.39 -8.88,-1.08 -16.25,-4.09 -22.11,-9.05 -5.86,-4.95 -10.03,-11.43 -12.52,-19.44 -2.49,-8 -3.11,-17.09 -1.88,-27.25z"/>
  <path id="_22" class="fil1" d="M2322.96 1628.96c3.09,-9.22 7.61,-17.2 13.56,-23.96 5.94,-6.73 12.88,-12.03 20.79,-15.87 7.92,-3.84 16.46,-6 25.65,-6.48 9.14,-0.49 18.53,0.87 28.12,4.08 9.59,3.21 17.9,7.77 24.94,13.68 7.04,5.91 12.56,12.78 16.57,20.61 4.01,7.83 6.35,16.24 7.05,25.18 0.68,8.98 -0.51,18.07 -3.6,27.29 -3.13,9.34 -7.67,17.39 -13.62,24.14 -5.95,6.76 -12.91,12.01 -20.86,15.77 -7.96,3.76 -16.5,5.89 -25.61,6.4 -9.12,0.5 -18.47,-0.85 -28.06,-4.06 -9.46,-3.17 -17.72,-7.71 -24.73,-13.61 -7.04,-5.91 -12.61,-12.76 -16.7,-20.56 -4.09,-7.79 -6.48,-16.17 -7.16,-25.15 -0.68,-8.97 0.53,-18.13 3.66,-27.48zm22.86 7.65c-1.98,5.9 -2.7,11.64 -2.17,17.21 0.52,5.58 2.18,10.82 4.99,15.71 2.8,4.9 6.51,9.25 11.08,13.04 4.61,3.79 10.04,6.74 16.31,8.84 6.27,2.1 12.38,3.02 18.35,2.76 5.97,-0.26 11.54,-1.5 16.73,-3.73 5.18,-2.23 9.67,-5.41 13.44,-9.55 3.77,-4.13 6.65,-9.15 8.63,-15.05 1.93,-5.78 2.65,-11.49 2.14,-17.12 -0.5,-5.64 -2.13,-10.9 -4.88,-15.75 -2.74,-4.87 -6.42,-9.18 -11.05,-12.92 -4.63,-3.74 -10.14,-6.67 -16.53,-8.81 -6.27,-2.1 -12.4,-3.06 -18.41,-2.88 -5.98,0.19 -11.54,1.4 -16.67,3.65 -5.11,2.22 -9.58,5.44 -13.37,9.64 -3.8,4.2 -6.66,9.18 -8.6,14.96z"/>
  <path id="_23" class="fil1" d="M2259.11 1784.34l117.82 68.04 -29.54 51.15c-4.08,7.07 -9.47,12.57 -16.15,16.49 -6.68,3.92 -13.84,5.97 -21.49,6.11 -7.65,0.15 -15,-1.82 -22.07,-5.9 -6.73,-3.89 -11.94,-9.18 -15.64,-15.88 -3.69,-6.7 -5.53,-13.89 -5.5,-21.58 0.02,-7.69 2.11,-15.13 6.26,-22.31l17.19 -29.77 -43.24 -24.97 12.35 -21.38zm-39.46 68.32l70.48 0.74 -8.83 24.99 -76.79 0.1 15.14 -25.83zm89.37 -10.98l-17.29 29.94c-1.88,3.26 -2.76,6.52 -2.64,9.81 0.12,3.29 1.14,6.38 3.05,9.29 1.92,2.9 4.5,5.29 7.76,7.17 3.7,2.14 7.39,3.15 11.05,3.02 3.66,-0.12 7.16,-1.25 10.48,-3.37 3.32,-2.12 6.12,-5.15 8.39,-9.08l15.06 -26.07 -35.86 -20.71z"/>
  <polygon id="_24" class="fil1" points="2130.99,1975.88 2216.09,2049.8 2241.59,2020.44 2259.21,2035.74 2190.9,2114.39 2173.28,2099.09 2199.55,2068.85 2114.44,1994.93 "/>
  <path class="fil1" d="M883.49 2454.32c-9.72,-3.22 -18.13,-7.9 -25.26,-14.01 -7.12,-6.12 -12.73,-13.2 -16.81,-21.25 -4.09,-8.05 -6.46,-16.65 -7.11,-25.81 -0.65,-9.16 0.6,-18.47 3.74,-27.94 3.1,-9.35 7.68,-17.49 13.73,-24.42 6.06,-6.94 13.15,-12.37 21.28,-16.29 8.13,-3.93 16.89,-6.17 26.3,-6.74 9.4,-0.57 18.91,0.74 28.5,3.92 6.77,2.24 12.98,5.33 18.64,9.26 5.66,3.93 10.47,8.38 14.41,13.38 3.94,5 6.88,10.14 8.81,15.42l-20.39 10.85c-2.34,-4.46 -4.96,-8.4 -7.86,-11.82 -2.9,-3.42 -6.11,-6.4 -9.64,-8.93 -3.53,-2.53 -7.38,-4.5 -11.56,-5.89 -6.15,-2.04 -12.21,-2.82 -18.17,-2.34 -5.96,0.48 -11.53,2.05 -16.72,4.7 -5.18,2.65 -9.75,6.25 -13.72,10.81 -3.97,4.56 -6.99,9.97 -9.07,16.24 -2,6.03 -2.76,12.13 -2.29,18.3 0.48,6.16 2.08,11.95 4.79,17.36 2.71,5.4 6.37,10.13 10.96,14.18 4.6,4.05 9.91,7.08 15.94,9.08 4.55,1.51 9.02,2.24 13.4,2.2 4.39,-0.05 8.51,-0.76 12.39,-2.14 3.87,-1.38 7.17,-3.39 9.89,-6.04 2.72,-2.65 4.7,-5.82 5.92,-9.51l1.35 -4.05 2.04 4.98 -38.2 -12.67 7.11 -21.4 58.49 19.41c-0.2,1.43 -0.52,3 -0.95,4.7 -0.43,1.7 -0.87,3.33 -1.31,4.89 -0.45,1.55 -0.85,2.89 -1.22,4 -2.81,8.49 -6.86,15.72 -12.11,21.69 -5.26,5.97 -11.4,10.59 -18.43,13.86 -7.02,3.27 -14.53,5.12 -22.52,5.54 -7.99,0.42 -16.11,-0.74 -24.35,-3.47zm270.19 54.52c-9.82,-0.75 -18.68,-3.11 -26.56,-7.09 -7.88,-3.98 -14.56,-9.33 -20.03,-16.05 -5.47,-6.72 -9.52,-14.51 -12.16,-23.35 -2.64,-8.85 -3.57,-18.37 -2.79,-28.59 0.75,-9.82 3.18,-18.8 7.31,-26.93 4.13,-8.14 9.54,-15.13 16.23,-20.99 6.68,-5.86 14.29,-10.21 22.83,-13.08 8.53,-2.86 17.65,-3.92 27.34,-3.18 6.59,0.5 12.92,1.96 18.97,4.37 6.05,2.41 11.54,5.53 16.45,9.35 4.9,3.81 8.93,8.12 12.08,12.91l-17.43 16.41c-3.09,-3.74 -6.33,-6.95 -9.7,-9.61 -3.37,-2.66 -6.91,-4.75 -10.64,-6.27 -3.72,-1.52 -7.58,-2.43 -11.59,-2.74 -5.94,-0.45 -11.61,0.22 -17.02,2.02 -5.4,1.8 -10.16,4.55 -14.28,8.27 -4.12,3.72 -7.49,8.24 -10.1,13.56 -2.61,5.33 -4.18,11.35 -4.69,18.07 -0.52,6.85 0.07,13.13 1.78,18.85 1.7,5.72 4.38,10.73 8.01,15.04 3.64,4.31 8.12,7.73 13.45,10.29 5.33,2.55 11.29,4.08 17.88,4.58 4.27,0.32 8.44,0.06 12.54,-0.8 4.09,-0.85 7.93,-2.22 11.52,-4.09 3.59,-1.87 6.91,-4.12 9.97,-6.75l10.88 20.92c-3.37,3.25 -7.75,6.1 -13.13,8.55 -5.38,2.44 -11.34,4.24 -17.86,5.37 -6.52,1.13 -12.95,1.45 -19.28,0.96zm205.45 -0.14l-16 -135.14 25.1 -2.94 15.81 135.17 -24.91 2.91zm4.7 -56.92l-2.45 -22.61 69.53 -7.94 2.83 22.57 -69.92 7.98zm-6.59 -56.38l-2.52 -23.19 78.01 -9.12 2.71 23.17 -78.2 9.15zm244.84 72.32l-46.12 -128.04 55.6 -20.03c7.68,-2.77 15.34,-3.5 22.98,-2.18 7.63,1.31 14.42,4.38 20.36,9.2 5.94,4.82 10.29,11.06 13.06,18.74 2.63,7.32 3.2,14.73 1.7,22.22 -1.5,7.5 -4.74,14.18 -9.73,20.04 -4.98,5.86 -11.38,10.2 -19.18,13.01l-32.37 11.66 16.93 47.01 -23.23 8.37zm74.26 -26.75l-53.38 -46.07 22.86 -13.4 58.75 49.51 -28.23 9.96zm-75.41 -49.29l32.56 -11.73c3.54,-1.27 6.32,-3.2 8.35,-5.79 2.03,-2.59 3.25,-5.62 3.66,-9.07 0.41,-3.45 -0.02,-6.95 -1.3,-10.48 -1.45,-4.02 -3.61,-7.17 -6.5,-9.44 -2.89,-2.27 -6.28,-3.66 -10.19,-4.18 -3.91,-0.52 -7.99,-0.02 -12.27,1.52l-28.35 10.21 14.03 38.96z"/>
  <circle class="fil2" cx="575.92" cy="2217.57" r="43.69"/>
  <circle class="fil2" cx="1947.14" cy="2217.57" r="43.69"/>
 </g>
</svg>
